<svg width="24" height="24" viewBox="0 0 24 24" fill="none" xmlns="http://www.w3.org/2000/svg">
<path d="M9.83749 19C9.68809 19.0005 9.54048 18.9675 9.4055 18.9035C9.27052 18.8395 9.15161 18.746 9.05749 18.63L4.22749 12.63C4.08041 12.4511 4 12.2266 4 11.995C4 11.7634 4.08041 11.5389 4.22749 11.36L9.22749 5.36C9.39723 5.15578 9.64114 5.02736 9.90556 5.00298C10.17 4.9786 10.4333 5.06026 10.6375 5.23C10.8417 5.39974 10.9701 5.64365 10.9945 5.90808C11.0189 6.1725 10.9372 6.43578 10.7675 6.64L6.29749 12L10.6175 17.36C10.7398 17.5068 10.8174 17.6855 10.8413 17.8751C10.8652 18.0646 10.8343 18.257 10.7522 18.4296C10.6702 18.6021 10.5404 18.7475 10.3783 18.8486C10.2162 18.9497 10.0285 19.0022 9.83749 19Z" fill="#585858"/>
<rect x="5.00757" y="11" width="15" height="2" rx="1" fill="#585858"/>
</svg>
