<svg width="24" height="24" viewBox="0 0 24 24" fill="none" xmlns="http://www.w3.org/2000/svg">
<path d="M14.9772 7.90623L16.0937 9.02271C16.193 9.12195 16.2164 9.19777 16.164 9.25014L9.25008 16.1641C9.1977 16.2165 9.12189 16.193 9.02265 16.0938L7.90617 14.9773C7.80692 14.8781 7.78349 14.8022 7.83587 14.7499L14.7498 7.83593C14.8022 7.78355 14.878 7.80698 14.9772 7.90623Z" fill="#585858"/>
<path d="M9.25385 7.83958L16.1605 14.7462C16.2153 14.801 16.1931 14.8781 16.0938 14.9773L14.9773 16.0938C14.8781 16.193 14.8011 16.2152 14.7463 16.1604L7.83964 9.2538C7.78482 9.19898 7.80704 9.12195 7.90628 9.02271L9.02277 7.90623C9.12201 7.80698 9.19904 7.78477 9.25385 7.83958Z" fill="#585858"/>
</svg>
