<svg width="24" height="24" viewBox="0 0 24 24" fill="none" xmlns="http://www.w3.org/2000/svg">
<mask id="mask0_29_15" style="mask-type:alpha" maskUnits="userSpaceOnUse" x="4" y="4" width="16" height="16">
<circle cx="12" cy="12" r="8" fill="#C4C4C4"/>
</mask>
<g mask="url(#mask0_29_15)">
<path d="M12 0C5.3832 0 0 5.3832 0 12C0 18.6168 5.3832 24 12 24C18.6168 24 24 18.6168 24 12C24 5.3832 18.6168 0 12 0ZM2.4 12C2.4 10.9212 2.5872 9.8856 2.9172 8.9172L4.8 10.8L7.2 13.2V15.6L9.6 18L10.8 19.2V21.5172C6.0732 20.9232 2.4 16.8864 2.4 12ZM19.596 17.8476C18.8124 17.2164 17.6244 16.8 16.8 16.8V15.6C16.8 14.9635 16.5471 14.353 16.0971 13.9029C15.647 13.4529 15.0365 13.2 14.4 13.2H9.6V9.6C10.2365 9.6 10.847 9.34714 11.2971 8.89706C11.7471 8.44697 12 7.83652 12 7.2V6H13.2C13.8365 6 14.447 5.74714 14.8971 5.29706C15.3471 4.84697 15.6 4.23652 15.6 3.6V3.1068C19.1136 4.5336 21.6 7.98 21.6 12C21.5998 14.1176 20.8947 16.175 19.596 17.8476Z" fill="#585858"/>
</g>
<circle cx="12" cy="12" r="10" stroke="#585858" stroke-width="2"/>
</svg>
